<?xml version="1.0" encoding="UTF-8" standalone="no"?>
<!-- Generator: Adobe Illustrator 26.0.3, SVG Export Plug-In . SVG Version: 6.00 Build 0)  -->

<svg
   version="1.0"
   id="katman_1"
   x="0px"
   y="0px"
   viewBox="0 0 388.90396 483.50061"
   xml:space="preserve"
   sodipodi:docname="harbor.svg"
   width="388.90396"
   height="483.50061"
   inkscape:version="1.3 (0e150ed6c4, 2023-07-21)"
   xmlns:inkscape="http://www.inkscape.org/namespaces/inkscape"
   xmlns:sodipodi="http://sodipodi.sourceforge.net/DTD/sodipodi-0.dtd"
   xmlns:xlink="http://www.w3.org/1999/xlink"
   xmlns="http://www.w3.org/2000/svg"
   xmlns:svg="http://www.w3.org/2000/svg"><defs
   id="defs24" /><sodipodi:namedview
   id="namedview24"
   pagecolor="#ffffff"
   bordercolor="#000000"
   borderopacity="0.25"
   inkscape:showpageshadow="2"
   inkscape:pageopacity="0.0"
   inkscape:pagecheckerboard="0"
   inkscape:deskcolor="#d1d1d1"
   inkscape:zoom="1.3416667"
   inkscape:cx="194.53416"
   inkscape:cy="241.86335"
   inkscape:window-width="1920"
   inkscape:window-height="1011"
   inkscape:window-x="0"
   inkscape:window-y="0"
   inkscape:window-maximized="1"
   inkscape:current-layer="katman_1" />&#10;<style
   type="text/css"
   id="style1">&#10;	.st0{fill:#FFFFFF;}&#10;	.st1{fill:#6A6667;}&#10;	.st2{clip-path:url(#SVGID_00000138561538157983831330000012667558577837233853_);}&#10;	.st3{fill:url(#path46_00000150821828954771850120000009157123014667810716_);}&#10;	.st4{clip-path:url(#SVGID_00000008109446735226228710000017067934349293606275_);}&#10;	.st5{fill:url(#path64_00000171711561437061620340000009280500582917184185_);}&#10;	.st6{clip-path:url(#SVGID_00000040558416485674094760000000409487243591718537_);}&#10;	.st7{fill:url(#path82_00000181061507534817742650000006622599694170929565_);}&#10;	.st8{clip-path:url(#SVGID_00000055691643801139413160000002821465202225581699_);}&#10;	.st9{fill:url(#path100_00000142150777334829994800000006409540573993925762_);}&#10;	.st10{clip-path:url(#SVGID_00000179611101970731494580000006240649961143545270_);}&#10;	.st11{fill:url(#path118_00000053538255536875015780000010984871354874068913_);}&#10;	.st12{clip-path:url(#SVGID_00000060747081951991517710000012224574585256897968_);}&#10;	.st13{fill:url(#path142_00000116923196162370046420000016637071537215657919_);}&#10;	.st14{clip-path:url(#SVGID_00000059305143541357718650000000046567013811672741_);}&#10;	.st15{fill:url(#path160_00000158014047058542056920000006146516121122285992_);}&#10;	.st16{clip-path:url(#SVGID_00000021104453027614312660000004946187092102354353_);}&#10;	.st17{fill:url(#path178_00000155834444584090017900000005226868717720663434_);}&#10;</style>&#10;&#10;&#10;&#10;&#10;&#10;&#10;&#10;&#10;&#10;&#10;&#10;&#10;&#10;&#10;&#10;&#10;&#10;<g
   id="g25"><path
     id="path14"
     class="st0"
     d="m 29.2,193.10062 c 0,-91.3 74,-165.3 165.3,-165.3 91.3,0 165.3,74 165.3,165.3 0,91.3 -74,165.3 -165.3,165.3 -91.3,0 -165.3,-74 -165.3,-165.3 0,0 0,0 0,0" /><path
     id="path16"
     class="st1"
     d="m 0,421.40062 c 0,-2 1.6,-3.6 3.6,-3.7 2,0 3.7,1.6 3.7,3.7 v 25.3 h 37.1 v -25.3 c 0,-2 1.5,-3.7 3.5,-3.7 2,0 3.7,1.5 3.7,3.5 0,0.1 0,0.1 0,0.2 v 57.8 c 0,2 -1.5,3.7 -3.5,3.7 -2,0 -3.7,-1.5 -3.7,-3.5 0,-0.1 0,-0.1 0,-0.2 v -25.7 H 7.3 v 25.7 c 0,2 -1.6,3.7 -3.7,3.7 -2,0 -3.6,-1.7 -3.6,-3.7 v -57.8" /><path
     id="path18"
     class="st1"
     d="m 108.3,458.80062 -14.7,-32.8 -14.8,32.9 h 29.5 z m -45.4,18.8 26.1,-57 c 0.7,-2 2.5,-3.3 4.6,-3.2 H 94 c 2,0 3.9,1.3 4.5,3.2 l 26.1,56.9 c 0.3,0.6 0.4,1.2 0.5,1.8 0,1.9 -1.6,3.5 -3.5,3.5 0,0 0,0 0,0 -1.6,-0.1 -3,-1.1 -3.6,-2.7 l -6.7,-14.8 H 76.1 l -6.7,15 c -0.5,1.5 -1.9,2.5 -3.5,2.5 -1.8,0 -3.3,-1.5 -3.3,-3.3 0,0 0,0 0,0 -0.2,-0.6 0,-1.3 0.3,-1.9" /><path
     id="path20"
     class="st1"
     d="m 162.9,450.90062 c 9.6,0 16.5,-5 16.5,-13.2 v -0.2 c 0,-7.9 -6.1,-12.7 -16.4,-12.7 h -19.8 v 26.1 z m -26.9,-29.1 c 0,-2 1.6,-3.6 3.6,-3.7 h 24 c 7.9,0 14.2,2.4 18.3,6.4 3.3,3.4 5.1,8 5,12.7 v 0.2 c 0,10.6 -7.2,16.7 -17.2,18.6 l 16,20.6 c 0.7,0.7 1.2,1.7 1.2,2.7 -0.1,2 -1.7,3.5 -3.7,3.6 -1.4,0 -2.6,-0.8 -3.4,-1.9 l -18.1,-23.5 h -18.4 v 21.7 c 0,2 -1.6,3.7 -3.6,3.7 -2,0 -3.7,-1.6 -3.7,-3.6 0,0 0,-0.1 0,-0.1 v -57.4" /><path
     id="path22"
     class="st1"
     d="m 228.2,475.90062 c 9.7,0 15.8,-4.3 15.8,-11.5 v -0.2 c 0,-7 -5.9,-11 -17.1,-11 h -20.3 v 22.7 z m -2.6,-29.1 c 8.7,0 14.8,-3.9 14.8,-11.5 v -0.2 c 0,-6.3 -5,-10.5 -14.2,-10.5 h -19.6 v 22.1 z m -26.1,-25 c 0,-2 1.6,-3.6 3.6,-3.7 h 23.8 c 7.3,0 13.1,2.1 16.8,5.7 2.7,2.7 4.2,6.4 4.1,10.3 v 0.2 c 0,8.4 -5.1,12.7 -10.2,14.9 7.6,2.3 13.8,6.7 13.8,15.5 v 0.2 c 0,11 -9.3,17.5 -23.3,17.5 h -25 c -2,0 -3.6,-1.7 -3.6,-3.7 v -56.9" /><path
     id="path24"
     class="st1"
     d="m 318,450.50062 v -0.2 c 0,-14.6 -10.6,-26.5 -25.3,-26.5 -14.7,0 -25.1,11.7 -25.1,26.3 v 0.2 c 0,14.6 10.6,26.5 25.3,26.5 14.7,0 25.1,-11.7 25.1,-26.3 z m -58,0 v -0.2 c 0,-17.7 13.3,-33.2 32.9,-33.2 19.5,0 32.7,15.3 32.7,33 v 0.2 c 0,17.7 -13.3,33.2 -32.9,33.2 -19.6,0 -32.7,-15.3 -32.7,-33" /><path
     id="path26"
     class="st1"
     d="m 365,450.90062 c 9.6,0 16.5,-5 16.5,-13.2 v -0.2 c 0,-7.9 -6.1,-12.7 -16.4,-12.7 h -19.8 v 26.1 z m -27,-29.1 c 0,-2 1.6,-3.6 3.6,-3.7 h 24 c 7.9,0 14.2,2.4 18.3,6.4 3.3,3.4 5.1,8 5,12.7 v 0.2 c 0,10.6 -7.2,16.7 -17.2,18.6 l 16,20.6 c 0.7,0.7 1.2,1.7 1.2,2.7 -0.1,2 -1.7,3.5 -3.7,3.6 -1.4,0 -2.6,-0.8 -3.4,-1.9 l -18.1,-23.5 h -18.4 v 21.7 c 0,2 -1.6,3.6 -3.6,3.6 -2,0 -3.6,-1.6 -3.6,-3.6 0,0 0,0 0,0 l -0.1,-57.4" /><g
     id="g3"
     transform="translate(-205.4,-57.79938)">&#10;	<defs
   id="defs1">&#10;		<polygon
   id="SVGID_1_"
   points="313.4,402.4 397.3,429.1 393.9,388 317.7,354.5 " />&#10;	</defs>&#10;	<clipPath
   id="SVGID_00000176724668952578142690000010318541945206398112_">&#10;		<use
   xlink:href="#SVGID_1_"
   style="overflow:visible"
   id="use1" />&#10;	</clipPath>&#10;	<g
   id="g30"
   clip-path="url(#SVGID_00000176724668952578142690000010318541945206398112_)">&#10;		<g
   id="g32">&#10;			&#10;				<linearGradient
   id="path46_00000055671893635253577570000013304190926542380424_"
   gradientUnits="userSpaceOnUse"
   x1="306.0112"
   y1="-308.57999"
   x2="317.3526"
   y2="-308.57999"
   gradientTransform="matrix(7.3902,0,0,7.3902,-1948.0314,2672.2112)">&#10;				<stop
   offset="0"
   style="stop-color:#64B337"
   id="stop1" />&#10;				<stop
   offset="0.282"
   style="stop-color:#64B337"
   id="stop2" />&#10;				<stop
   offset="1"
   style="stop-color:#377D34"
   id="stop3" />&#10;			</linearGradient>&#10;			<path
   id="path46"
   style="fill:url(#path46_00000055671893635253577570000013304190926542380424_)"
   d="m 393.9,388 -76.2,-33.6 -4.2,48 83.8,26.6 -3.4,-41" />&#10;		</g>&#10;	</g>&#10;</g><g
     id="g6"
     transform="translate(-205.4,-57.79938)">&#10;	<defs
   id="defs3">&#10;		<path
   id="SVGID_00000183236207912538651210000005161495549045638319_"
   d="m 332.6,202.5 h 42.8 V 239 h -10.2 v -15.6 c 0.1,-6.2 -4.9,-11.3 -11.1,-11.4 -6.2,-0.1 -11.3,4.9 -11.4,11.1 0,0.1 0,0.1 0,0.2 V 239 h -10.2 z m -8.5,80 63.5,28 -4.4,-53.6 h 8.3 V 239 h -6.2 v -36.5 h 6.2 V 192 l -34.2,-33.5 v -2.4 c 0,-1.8 -1.5,-3.2 -3.3,-3.2 -1.7,0 -3.1,1.4 -3.2,3.2 v 2.4 L 316.5,192 v 10.5 h 6.2 V 239 h -6.2 v 17.9 h 9.8 z" />&#10;	</defs>&#10;	<clipPath
   id="SVGID_00000130622044612442810150000004596500107116567720_">&#10;		<use
   xlink:href="#SVGID_00000183236207912538651210000005161495549045638319_"
   style="overflow:visible"
   id="use3" />&#10;	</clipPath>&#10;	<g
   id="g48"
   clip-path="url(#SVGID_00000130622044612442810150000004596500107116567720_)">&#10;		<g
   id="g50">&#10;			&#10;				<linearGradient
   id="path64_00000137825086866618286200000011906088932383555990_"
   gradientUnits="userSpaceOnUse"
   x1="310.11179"
   y1="-325.7507"
   x2="321.4534"
   y2="-325.7507"
   gradientTransform="matrix(6.6096,0,0,6.6096,-1733.1951,2384.7935)">&#10;				<stop
   offset="0"
   style="stop-color:#64B337"
   id="stop4" />&#10;				<stop
   offset="0.282"
   style="stop-color:#64B337"
   id="stop5" />&#10;				<stop
   offset="1"
   style="stop-color:#377D34"
   id="stop6" />&#10;			</linearGradient>&#10;			<path
   id="path64"
   style="fill:url(#path64_00000137825086866618286200000011906088932383555990_)"
   d="m 332.6,202.5 h 42.8 V 239 h -10.2 v -15.6 c 0.1,-6.2 -4.9,-11.3 -11.1,-11.4 -6.2,-0.1 -11.3,4.9 -11.4,11.1 0,0.1 0,0.1 0,0.2 V 239 h -10.2 z m -8.5,80 63.5,28 -4.4,-53.6 h 8.3 V 239 h -6.2 v -36.5 h 6.2 V 192 l -34.2,-33.5 v -2.4 c 0,-1.8 -1.5,-3.2 -3.3,-3.2 -1.7,0 -3.1,1.4 -3.2,3.2 v 2.4 L 316.5,192 v 10.5 h 6.2 V 239 h -6.2 v 17.9 h 9.8 l -2.2,25.6" />&#10;		</g>&#10;	</g>&#10;</g><g
     id="g9"
     transform="translate(-205.4,-57.79938)">&#10;	<defs
   id="defs6">&#10;		<polygon
   id="SVGID_00000165222250785179389310000007054165181529516731_"
   points="390.2,342.7 321.4,312.4 320.3,324.5 391.3,355.8 " />&#10;	</defs>&#10;	<clipPath
   id="SVGID_00000034789522693962178290000001572532586628385442_">&#10;		<use
   xlink:href="#SVGID_00000165222250785179389310000007054165181529516731_"
   style="overflow:visible"
   id="use6" />&#10;	</clipPath>&#10;	<g
   id="g66"
   clip-path="url(#SVGID_00000034789522693962178290000001572532586628385442_)">&#10;		<g
   id="g68">&#10;			&#10;				<linearGradient
   id="path82_00000077294424167564248060000001813163371927765429_"
   gradientUnits="userSpaceOnUse"
   x1="312.67169"
   y1="-309.4342"
   x2="324.01321"
   y2="-309.4342"
   gradientTransform="matrix(6.2537,0,0,6.2537,-1635.0306,2269.2136)">&#10;				<stop
   offset="0"
   style="stop-color:#64B337"
   id="stop7" />&#10;				<stop
   offset="0.282"
   style="stop-color:#64B337"
   id="stop8" />&#10;				<stop
   offset="1"
   style="stop-color:#377D34"
   id="stop9" />&#10;			</linearGradient>&#10;			<path
   id="path82"
   style="fill:url(#path82_00000077294424167564248060000001813163371927765429_)"
   d="m 320.3,324.5 70.9,31.3 -1.1,-13 -68.8,-30.3 -1,12" />&#10;		</g>&#10;	</g>&#10;</g><g
     id="g12"
     transform="translate(-205.4,-57.79938)">&#10;	<defs
   id="defs9">&#10;		<polygon
   id="SVGID_00000011732929004142992340000016747261878132887949_"
   points="392.1,365.4 319.5,333.4 318.5,345.5 393.1,378.4 " />&#10;	</defs>&#10;	<clipPath
   id="SVGID_00000157285191943823367920000006283154596579509935_">&#10;		<use
   xlink:href="#SVGID_00000011732929004142992340000016747261878132887949_"
   style="overflow:visible"
   id="use9" />&#10;	</clipPath>&#10;	<g
   id="g84"
   clip-path="url(#SVGID_00000157285191943823367920000006283154596579509935_)">&#10;		<g
   id="g86">&#10;			&#10;				<linearGradient
   id="path100_00000066482817753494220990000017938921687033652394_"
   gradientUnits="userSpaceOnUse"
   x1="310.535"
   y1="-308.43359"
   x2="321.87631"
   y2="-308.43359"
   gradientTransform="matrix(6.581,0,0,6.581,-1725.1632,2385.7358)">&#10;				<stop
   offset="0"
   style="stop-color:#64B337"
   id="stop10" />&#10;				<stop
   offset="0.282"
   style="stop-color:#64B337"
   id="stop11" />&#10;				<stop
   offset="1"
   style="stop-color:#377D34"
   id="stop12" />&#10;			</linearGradient>&#10;			<path
   id="path100"
   style="fill:url(#path100_00000066482817753494220990000017938921687033652394_)"
   d="m 318.5,345.5 74.6,32.9 -1.1,-13 -72.5,-32 -1,12.1" />&#10;		</g>&#10;	</g>&#10;</g><g
     id="g15"
     transform="translate(-205.4,-57.79938)">&#10;	<defs
   id="defs12">&#10;		<polygon
   id="SVGID_00000036237371526855918140000005345264712087890853_"
   points="389.4,333.1 388.3,320.1 323.3,291.4 322.2,303.5 " />&#10;	</defs>&#10;	<clipPath
   id="SVGID_00000144300550813403498190000010844793033036856714_">&#10;		<use
   xlink:href="#SVGID_00000036237371526855918140000005345264712087890853_"
   style="overflow:visible"
   id="use12" />&#10;	</clipPath>&#10;	<g
   id="g102"
   clip-path="url(#SVGID_00000144300550813403498190000010844793033036856714_)">&#10;		<g
   id="g104">&#10;			&#10;				<linearGradient
   id="path118_00000000197838274004270790000015969271227788739767_"
   gradientUnits="userSpaceOnUse"
   x1="315.04431"
   y1="-310.54541"
   x2="326.3858"
   y2="-310.54541"
   gradientTransform="matrix(5.9264,0,0,5.9264,-1544.8984,2152.6904)">&#10;				<stop
   offset="0"
   style="stop-color:#64B337"
   id="stop13" />&#10;				<stop
   offset="0.282"
   style="stop-color:#64B337"
   id="stop14" />&#10;				<stop
   offset="1"
   style="stop-color:#377D34"
   id="stop15" />&#10;			</linearGradient>&#10;			<path
   id="path118"
   style="fill:url(#path118_00000000197838274004270790000015969271227788739767_)"
   d="m 323.3,291.4 -1.1,12.1 67.2,29.6 -1.1,-13 -65,-28.7" />&#10;		</g>&#10;	</g>&#10;</g><path
     id="path120"
     class="st1"
     d="m 332.5,117.50062 34.3,-11 c -0.1,-0.2 -0.2,-0.5 -0.4,-0.7 -5.8,-11.3 -12.7,-22 -20.6,-32 l -32.2,16.6 c 7.1,8.2 13.3,17.1 18.6,26.5 0.1,0.2 0.2,0.4 0.3,0.6" /><path
     id="path122"
     class="st1"
     d="m 351.4,182.40062 35.8,2.6 c -0.4,-9.5 -1.5,-19 -3.3,-28.4 l -36.1,1.2 c 1.9,8.1 3.1,16.3 3.6,24.6" /><path
     id="path124"
     class="st1"
     d="m 197,350.50062 c -86.8,0 -157.5,-70.6 -157.5,-157.5 0,-86.8 70.6,-157.5 157.5,-157.5 30,0 59.4,8.6 84.7,24.8 l 25,-26 C 274.5,11.90062 236.2,-0.09938005 197,6.1995471e-4 90.6,6.1995471e-4 4,86.60062 4,193.00062 c 0,106.4 86.6,193 193,193 90.9,0 167.3,-63.2 187.6,-148 l -33.8,-11.7 c -15.3,71 -78.4,124.2 -153.8,124.2" /><g
     id="g18"
     transform="translate(-205.4,-57.79938)">&#10;	<defs
   id="defs15">&#10;		<path
   id="SVGID_00000183241824270581431790000003512859125541749388_"
   d="m 547.9,127.2 c -9.8,-11.7 -20.8,-22.1 -33,-31.2 -1.8,-1.3 -3.5,-2.6 -5.3,-3.8 l -25,26 -91.4,95.1 125.8,-65.1 32.3,-16.7 c -1.2,-1.4 -2.2,-2.9 -3.4,-4.3 z" />&#10;	</defs>&#10;	<clipPath
   id="SVGID_00000152236863084518151860000011043538529724695208_">&#10;		<use
   xlink:href="#SVGID_00000183241824270581431790000003512859125541749388_"
   style="overflow:visible"
   id="use15" />&#10;	</clipPath>&#10;	<g
   id="g126"
   clip-path="url(#SVGID_00000152236863084518151860000011043538529724695208_)">&#10;		<g
   id="g128">&#10;			&#10;				<linearGradient
   id="path142_00000057134390951785015370000005926462310846499499_"
   gradientUnits="userSpaceOnUse"
   x1="284.75809"
   y1="-331.67661"
   x2="296.09891"
   y2="-331.67661"
   gradientTransform="matrix(12.899,-9.5528,9.5528,12.899,-110.4112,7211.2178)">&#10;				<stop
   offset="0"
   style="stop-color:#4795D1"
   id="stop16" />&#10;				<stop
   offset="0.2"
   style="stop-color:#4795D1"
   id="stop17" />&#10;				<stop
   offset="1"
   style="stop-color:#FFFFFF"
   id="stop18" />&#10;			</linearGradient>&#10;			<path
   id="path142"
   style="fill:url(#path142_00000057134390951785015370000005926462310846499499_)"
   d="m 547.9,127.2 c -9.8,-11.7 -20.8,-22.1 -33,-31.2 -1.8,-1.3 -3.5,-2.6 -5.3,-3.8 l -25,26 -91.4,95.1 125.8,-65.1 32.3,-16.7 c -1.2,-1.4 -2.2,-2.9 -3.4,-4.3" />&#10;		</g>&#10;	</g>&#10;</g><g
     id="g21"
     transform="translate(-205.4,-57.79938)">&#10;	<defs
   id="defs18">&#10;		<path
   id="SVGID_00000132063628247819084060000014629110620161596596_"
   d="m 592.8,249.4 c 0,-2.2 -0.2,-4.4 -0.2,-6.6 l -35.8,-2.6 -163.7,-11.8 160.6,55.7 33.8,11.7 c 0.1,-0.4 0.2,-0.8 0.3,-1.2 3.4,-14.4 5.1,-29.1 5.1,-43.8 0,-0.4 -0.1,-0.9 -0.1,-1.4 z" />&#10;	</defs>&#10;	<clipPath
   id="SVGID_00000178899108839173566540000009516297135728127670_">&#10;		<use
   xlink:href="#SVGID_00000132063628247819084060000014629110620161596596_"
   style="overflow:visible"
   id="use18" />&#10;	</clipPath>&#10;	<g
   id="g144"
   clip-path="url(#SVGID_00000178899108839173566540000009516297135728127670_)">&#10;		<g
   id="g146">&#10;			&#10;				<linearGradient
   id="path160_00000018920419786294186480000000369558084140735648_"
   gradientUnits="userSpaceOnUse"
   x1="292.2399"
   y1="-345.1351"
   x2="303.58539"
   y2="-345.1351"
   gradientTransform="matrix(18.512,3.7781,-3.7781,18.512,-6321.3564,5514.0669)">&#10;				<stop
   offset="0"
   style="stop-color:#4393D0"
   id="stop19" />&#10;				<stop
   offset="0.2"
   style="stop-color:#4393D0"
   id="stop20" />&#10;				<stop
   offset="1"
   style="stop-color:#FFFFFF"
   id="stop21" />&#10;			</linearGradient>&#10;			<path
   id="path160"
   style="fill:url(#path160_00000018920419786294186480000000369558084140735648_)"
   d="m 592.8,249.4 c 0,-2.2 -0.2,-4.4 -0.2,-6.6 l -35.8,-2.6 -163.7,-11.8 160.6,55.7 33.8,11.7 c 0.1,-0.4 0.2,-0.8 0.3,-1.2 3.4,-14.4 5.1,-29.1 5.1,-43.8 0,-0.4 -0.1,-0.9 -0.1,-1.4" />&#10;		</g>&#10;	</g>&#10;</g><g
     id="g24"
     transform="translate(-205.4,-57.79938)">&#10;	<defs
   id="defs21">&#10;		<path
   id="SVGID_00000114069643224167254590000015743445783668310936_"
   d="m 587.6,206.1 c -3.5,-14.5 -8.6,-28.5 -15.4,-41.9 l -34.3,11 -142.3,45.8 157.6,-5.4 36.1,-1.2 c -0.5,-2.8 -1.1,-5.6 -1.7,-8.3 z" />&#10;	</defs>&#10;	<clipPath
   id="SVGID_00000178884090317716656750000017401206048290521475_">&#10;		<use
   xlink:href="#SVGID_00000114069643224167254590000015743445783668310936_"
   style="overflow:visible"
   id="use21" />&#10;	</clipPath>&#10;	<g
   id="g162"
   clip-path="url(#SVGID_00000178884090317716656750000017401206048290521475_)">&#10;		<g
   id="g164">&#10;			&#10;				<linearGradient
   id="path178_00000052784178209127803830000012121586938306184615_"
   gradientUnits="userSpaceOnUse"
   x1="290.67581"
   y1="-338.32681"
   x2="302.01682"
   y2="-338.32681"
   gradientTransform="matrix(17.0548,-3.0763,3.0763,17.0548,-3520.2698,6886.8677)">&#10;				<stop
   offset="0"
   style="stop-color:#4393D0"
   id="stop22" />&#10;				<stop
   offset="0.333"
   style="stop-color:#4695D1"
   id="stop23" />&#10;				<stop
   offset="1"
   style="stop-color:#FFFFFF"
   id="stop24" />&#10;			</linearGradient>&#10;			<path
   id="path178"
   style="fill:url(#path178_00000052784178209127803830000012121586938306184615_)"
   d="m 587.6,206.1 c -3.5,-14.5 -8.6,-28.5 -15.4,-41.9 l -34.3,11 -142.3,45.8 157.6,-5.4 36.1,-1.2 c -0.5,-2.8 -1.1,-5.6 -1.7,-8.3" />&#10;		</g>&#10;	</g>&#10;</g></g>&#10;</svg>
