<svg id="Layer_1" data-name="Layer 1" xmlns="http://www.w3.org/2000/svg" viewBox="0 0 708 398"><defs><style>.cls-1{fill:#1666af;}.cls-2{fill:#89b2d6;}.cls-3{fill:#7ca9d2;}.cls-4{fill:#6593ca;}.cls-5{fill:#fefefe;}</style></defs><path class="cls-1" d="M198.22,232.22v-.43c2.49-17.81,7.47-35.1,11.29-52.63,3.68-16.94,7.77-33.79,11.47-50.73.91-4.16,2.74-7.29,6.9-8.87,4.88-1.86,9.44-4.44,14.13-6.71q15.06-7.26,30.11-14.52c15.68-7.58,31.42-15,47.06-22.7,4.07-2,8.23-3,12.6-1.17,2.33,1,4.63,2.08,6.9,3.21,10.23,5.09,20.57,9.94,30.85,14.91,8.26,4,16.48,8,24.8,11.88a3.53,3.53,0,0,1,1.61,1.32c.93,1.24.14,2.3-.43,3.31q-4.08,7.29-8.37,14.46A8.62,8.62,0,0,0,386,130c2.21,11.84,4.27,23.71,6.3,35.59a7.8,7.8,0,0,0,2.93,4.93c8.3,6.87,16.52,13.83,24.78,20.76,1.13.95,2.31,1.85,3.4,2.85a6.22,6.22,0,0,0,4.45,1.6c5.36-.06,10.72,0,16.08,0a6.7,6.7,0,0,1,3.31.42c1.43,1.45,1.58,3.4,2,5.24q3.36,14.63,6.68,29.26a9.11,9.11,0,0,1-1.9,8.25Q432.47,266,410.8,293q-11.67,14.61-23.28,29.27c-1.64,2.07-3.67,2.37-6,2.38H272.42a7.45,7.45,0,0,1-6.87-3.14c-9.08-11.57-18.31-23-27.49-34.51-11-13.75-21.9-27.53-32.92-41.24l-5.26-6.6a6.86,6.86,0,0,1-1.45-4.54C198.33,233.84,198.66,233,198.22,232.22Z"/><path class="cls-2" d="M271.45,324.89a.66.66,0,0,1-.06-.34c.49,0,1-.08,1.47-.08q54,0,108.07,0c.49,0,1,0,1.48,0a2.2,2.2,0,0,0-.05.37Z"/><path class="cls-3" d="M198.55,234.84l-.19.07-.14-.15v-2.54A5,5,0,0,1,198.55,234.84Z"/><path class="cls-4" d="M395.46,106.21c1-.12,1.12-1,1.5-1.62,2.66-4.57,5.32-9.13,7.91-13.73a5.77,5.77,0,0,1,3.27-2.79q18.28-6.6,36.54-13.28a5.86,5.86,0,0,1,4.3,0q18.25,6.69,36.53,13.29a5.56,5.56,0,0,1,3.11,2.64q9.69,16.86,19.45,33.68a5.61,5.61,0,0,1,.74,4q-3.39,19-6.71,38.07a6.38,6.38,0,0,1-2.32,4.08Q484.9,183,470.12,195.46a4.5,4.5,0,0,1-3,1.29c-6.63,0-13.25,0-19.88-.06s-13.54,0-20.31.05a5.56,5.56,0,0,1-3.79-1.54c-9.06-7.62-18-15.34-27.25-22.77a13.07,13.07,0,0,1-5-8.8c-1.88-11.75-4-23.46-6.14-35.17a6,6,0,0,1,.94-4.38q4.47-7.68,8.89-15.38C395,107.94,395.8,107.27,395.46,106.21Z"/><path class="cls-5" d="M369.4,162.82C359,176.18,349,189.16,338.82,202.08c-1,1.3-1.16,2.14-.26,3.62q15.79,25.76,31.42,51.61c.32.52.58,1.08,1,1.92H368.1c-6.84,0-13.69-.06-20.53,0a3.07,3.07,0,0,1-3.11-1.85q-10.71-19.05-21.53-38.05c-.27-.48-.57-1-1-1.63l-7.82,9.55c-.56.68-.33,1.48-.33,2.24,0,9.23-.05,18.47,0,27.71,0,1.52-.29,2.06-1.95,2-6-.11-12-.08-18,0-1.38,0-1.8-.37-1.79-1.77q.06-46.55,0-93.08c0-1.35.43-1.63,1.68-1.62,6.07.06,12.14.08,18.2,0,1.52,0,1.84.44,1.84,1.89-.06,13.39,0,26.79,0,40.31.93-.13,1-.93,1.36-1.46,8.35-13.57,17.78-26.41,26.61-39.65a1.86,1.86,0,0,1,1.66-1.07C351.93,162.83,360.44,162.82,369.4,162.82Z"/><path class="cls-5" d="M429.77,136c0-5.78.05-11.56,0-17.35,0-1.42.3-2.1,1.85-1.92a14,14,0,0,0,3,0c2.44-.24,4.09.43,4.56,3.15.28,1.67,1.11.39,1.54,0a15.07,15.07,0,0,1,10.5-3.76c7.2.26,12.15,4.85,12.42,12.1.31,8.45.1,16.92.14,25.38,0,.95-.29,1.44-1.32,1.43-2.54,0-5.08,0-7.61,0-1.45,0-1.31-.9-1.31-1.83,0-7.55,0-15.09,0-22.64,0-3.9-1.66-6.07-5-6.47-3.08-.36-5.62,1-7.82,3-.72.67-.49,1.58-.49,2.41,0,7.75-.06,15.51,0,23.26,0,1.73-.44,2.41-2.24,2.29a51.74,51.74,0,0,0-6.35,0c-1.52.08-1.88-.52-1.86-2C429.82,147.37,429.77,141.66,429.77,136Z"/></svg>