<?xml version="1.0" encoding="utf-8"?><!DOCTYPE svg PUBLIC "-//W3C//DTD SVG 1.1//EN" "http://www.w3.org/Graphics/SVG/1.1/DTD/svg11.dtd"><svg version="1.1" id="Layer_1" xmlns="http://www.w3.org/2000/svg" xmlns:xlink="http://www.w3.org/1999/xlink" x="0px" y="0px"  width="180px" height="17px" viewBox="0 0 180 17" enable-background="new 0 0 180 17" xml:space="preserve"><path fill-rule="evenodd" clip-rule="evenodd" fill="%23000" d="M143.76,17h14.52c0.271,0,0.53-0.271,0.53-0.53v-2.79 c0-0.25-0.26-0.52-0.53-0.52h-7.52V7.7c0-2.681,1.12-3.721,3.82-3.721h2.779c0.25,0,0.53-0.27,0.53-0.529V0.66 c0-0.25-0.28-0.53-0.53-0.53h-3.3c-4.75,0-7.53,2.899-7.53,7.71v5.32h-2.77c-0.26,0-0.53,0.27-0.53,0.52v2.79 C143.229,16.739,143.5,17,143.76,17z M57.66,0.13H42.87c-0.29,0-0.53,0.27-0.53,0.53v2.79c0,0.26,0.26,0.529,0.53,0.529h3.18v6.38 c0,4.79,1.98,6.641,6.46,6.641h3.57c0.27,0,0.53-0.271,0.53-0.53v-2.79c0-0.26-0.26-0.52-0.53-0.52h-2.64 c-1.48,0-3.17-0.11-3.17-2.801v-6.38h7.39c0.28,0,0.53-0.27,0.53-0.529V0.66C58.19,0.399,57.94,0.13,57.66,0.13z M77,0.13h-6.87 c-4.77,0-7.53,2.93-7.53,7.71v1.59c0,4.78,2.76,7.57,7.53,7.57h6.34C76.74,17,77,16.739,77,16.47v-2.79c0-0.26-0.26-0.52-0.53-0.52 h-5.81c-2.77,0-3.83-1.07-3.83-3.73V7.7c0-2.79,1-3.721,3.7-3.721H77c0.26,0,0.529-0.279,0.529-0.529V0.66 C77.529,0.399,77.27,0.13,77,0.13z M9.77,0.13H6.34C2.64,0.13,0,2.14,0,6.38v10.09C0,16.739,0.26,17,0.52,17H3.7 c0.26,0,0.53-0.261,0.53-0.53V6.64c0-1.59,0.79-2.66,2.64-2.66h2.11c3.17,0,3.7,0.8,3.7,3.19v9.3c0,0.27,0.26,0.53,0.53,0.53h3.17 c0.25,0,0.53-0.261,0.53-0.53v-9.3C16.91,2.39,14.8,0.13,9.77,0.13z M118.319,0.13h-14.8c-0.279,0-0.52,0.27-0.52,0.53v2.79 c0,0.26,0.26,0.529,0.52,0.529h3.17v6.38c0,4.79,1.98,6.641,6.471,6.641h3.569c0.271,0,0.53-0.271,0.53-0.53v-2.79 c0-0.26-0.26-0.52-0.53-0.52h-2.64c-1.48,0-3.17-0.11-3.17-2.801v-6.38h7.399c0.261,0,0.521-0.27,0.521-0.529V0.66 C118.84,0.399,118.58,0.13,118.319,0.13z M168.64,10.359h7.13c-0.01,0.311,0,0.931,0,1.2c0,1.32-0.79,1.73-1.979,1.73h-5.15 c-0.79,0-1.45-0.53-1.45-1.471v-0.13C167.189,10.63,167.85,10.359,168.64,10.359z M163.22,12.09c0,2.92,2.38,4.91,5.55,4.91h5.42 c3.83,0,5.811-2.34,5.811-5.57V7.08c0-4.811-2.26-6.95-7-6.95h-7c-0.271,0-0.53,0.27-0.53,0.53v2.79c0,0.25,0.28,0.529,0.53,0.529 h6.729c2.25,0,3.04,0.4,3.04,2.79h-7c-3.21,0-5.55,1.601-5.55,5.05V12.09z M25.81,6.77c0-1.99,1.21-3.06,4.01-3.06h0.9 c2.62,0,3.54,1.069,3.67,3.06H25.81z M36.24,16.47v-2.79c0-0.25-0.26-0.52-0.52-0.52h-6.08c-2.38,0-3.44-0.4-3.7-2.801h9.78 c2.11,0,2.9-1.319,2.9-2.659V7.17C38.62,3,35.98,0,31.22,0h-1.85c-4.74,0-7.79,2.729-7.79,7.51v1.66c0,4.8,2.64,7.83,7.79,7.83h6.35 C35.98,17,36.24,16.739,36.24,16.47z M86.43,6.77c0-1.99,1.21-3.06,4.01-3.06h0.9c2.63,0,3.55,1.069,3.68,3.06H86.43z M96.87,16.47 v-2.79c0-0.25-0.261-0.52-0.54-0.52h-6.07c-2.37,0-3.43-0.4-3.69-2.801h9.761c2.12,0,2.91-1.319,2.91-2.659V7.17 C99.24,3,96.609,0,91.85,0H90c-4.75,0-7.79,2.729-7.79,7.51v1.66c0,4.8,2.64,7.83,7.79,7.83h6.33 C96.609,17,96.87,16.739,96.87,16.47z M127.22,6.77c0-1.99,1.21-3.06,4.01-3.06h0.891c2.63,0,3.55,1.069,3.68,3.06H127.22z  M137.66,16.47v-2.79c0-0.25-0.261-0.52-0.53-0.52h-6.09c-2.37,0-3.42-0.4-3.69-2.801h9.78c2.09,0,2.88-1.319,2.88-2.659V7.17 c0-4.17-2.61-7.17-7.38-7.17h-1.851c-4.75,0-7.789,2.729-7.789,7.51v1.66c0,4.8,2.64,7.83,7.789,7.83h6.351 C137.399,17,137.66,16.739,137.66,16.47z"/></svg>