<svg xmlns="http://www.w3.org/2000/svg" viewBox="0 0 150.52 22.11"><defs><style>.cls-1{fill:none;}.cls-2,.cls-3,.cls-4,.cls-5{fill:#005faa;}.cls-2{fill-opacity:0.45;}.cls-3{fill-opacity:0.85;}.cls-4{fill-opacity:0.25;}</style></defs><title>Netstream_Blue_RGB</title><g id="Ebene_2" data-name="Ebene 2"><g id="Logo"><rect class="cls-1" width="150.52" height="22.11"/><path class="cls-2" d="M10.84,8.19A3,3,0,0,0,9,11v6.2l6-2.41A3,3,0,0,0,16.82,12V5.77Z"/><path class="cls-3" d="M6.25,5.1A3,3,0,0,0,4.39,7.86V19L9,17.15V11a3,3,0,0,1,1.86-2.76l6-2.42V.83Z"/><path class="cls-4" d="M16.82,5.77V12A3,3,0,0,1,15,14.74L9,17.15v4.94l10.56-4.27a3,3,0,0,0,1.86-2.75V3.92Z"/><path class="cls-5" d="M8,6.52A3,3,0,0,0,6.69,9v9.07L9,17.15V11a3,3,0,0,1,1.86-2.76l6-2.42V.83Z"/><path class="cls-5" d="M32.86,5.23c0,.28,0,.55,0,.83,0,0,0,0,0,0A4.65,4.65,0,0,1,37,4c3.06,0,4.8,2,4.8,5.47v8.25H38.73V10.85c0-2.61-.61-4.28-2.71-4.28s-3,1.64-3,3.72v7.42H29.93V6.42c0-.69,0-1.34,0-2h2.95Z"/><path class="cls-5" d="M47.37,11.81a3.81,3.81,0,0,0,3.81,3.75,3.22,3.22,0,0,0,3-1.65h3.11a6.21,6.21,0,0,1-6.22,4.2c-4.15,0-6.83-2.93-6.83-7.08S47,4,51.06,4c4.22,0,6.49,3.17,6.49,7,0,.48,0,.76,0,.84Zm7.1-2.2a3.51,3.51,0,0,0-7,0Z"/><path class="cls-5" d="M62.94,4.42h2.48v2.3H62.94V14c0,1.24.58,1.64,1.59,1.64a3.65,3.65,0,0,0,.63-.05v2.28A4.36,4.36,0,0,1,64,18c-2.5,0-4.12-.81-4.12-3.44V2.07L62.94.82Z"/><path class="cls-5" d="M83.35,4.42h2.48v2.3H83.35V14c0,1.24.58,1.64,1.59,1.64a3.78,3.78,0,0,0,.64-.05v2.28a4.4,4.4,0,0,1-1.19.1c-2.5,0-4.12-.81-4.12-3.44V2.07L83.35.82Z"/><path class="cls-5" d="M69.83,13.51a2.79,2.79,0,0,0,2.88,2.12c1.32,0,2.36-.63,2.36-1.64s-1-1.19-2.36-1.57L71.25,12c-2.15-.61-3.87-1.47-3.87-3.92S69.53,4,72.49,4s5,1.52,5.23,4.15H75a2.42,2.42,0,0,0-2.58-1.7c-1.39,0-2,.66-2,1.47s.71,1.14,2,1.52l1.47.38c2.73.76,4.07,1.65,4.07,3.92,0,2.64-2.2,4.38-5.29,4.38-3.31,0-5.23-1.54-5.74-4.6Z"/><path class="cls-5" d="M91.44,4.39V5.3c0,.31,0,.61,0,.89a3.22,3.22,0,0,1,3.21-2.1,4.35,4.35,0,0,1,.73,0V7.08A3,3,0,0,0,94.47,7c-2.42,0-2.83,1.73-2.83,4.46v6.28H88.72L88.56,6.8c0-.84,0-1.6,0-2.41Z"/><path class="cls-5" d="M99.33,11.81a3.82,3.82,0,0,0,3.82,3.75,3.21,3.21,0,0,0,3-1.65h3.11a6.21,6.21,0,0,1-6.22,4.2c-4.14,0-6.82-2.93-6.82-7.08S99,4,103,4c4.23,0,6.5,3.17,6.5,7,0,.48,0,.76,0,.84Zm7.11-2.2a3.52,3.52,0,0,0-7,0Z"/><path class="cls-5" d="M111.83,8.57C112,6,114.05,4,117.51,4,120.75,4,123,5.33,123,9.86v3.72a21.38,21.38,0,0,0,.3,4.13h-2.83a9.9,9.9,0,0,1-.15-1.77,5.16,5.16,0,0,1-4.4,2c-2.75,0-4.73-1.45-4.73-4,0-2.76,3-3.82,5.77-4.22,1.14-.18,2.17-.28,3.06-.36-.08-2.23-.84-3-2.58-3a2.36,2.36,0,0,0-2.68,2.18Zm8.24,3-.69.08c-3.36.33-4.9.89-4.9,2.28,0,1.21.88,1.82,2.3,1.82,2.23,0,3.26-1.37,3.26-3.62C120,12.12,120,11.86,120.07,11.58Z"/><path class="cls-5" d="M128.93,5.25c0,.28,0,.53,0,.84a4.35,4.35,0,0,1,4-2.1,4.18,4.18,0,0,1,4,2.25A5.15,5.15,0,0,1,141.35,4c3.06,0,4.78,2,4.78,5.47v8.25H143V10.62c0-2.73-.73-4-2.55-4S137.61,8,137.61,10v7.7h-3.09V10.55c0-2.71-.73-4-2.58-4-2,0-2.85,1.6-2.85,3.72v7.42H126V6.47c0-.71,0-1.34,0-2h3Z"/><path class="cls-5" d="M88.56,6.8c0-.84,0-1.6,0-2.41h2.91"/></g></g></svg>