<svg width="107" height="28" viewBox="0 0 107 28" fill="none" xmlns="http://www.w3.org/2000/svg">
<path d="M36.2428 16.5172C36.2428 18.292 37.3545 19.306 38.8951 19.306C40.1431 19.306 41.1379 18.5065 41.1379 17.2775C41.1379 15.893 39.9093 15.4447 38.9731 15.1129C36.4768 14.2354 34.468 13.4748 34.468 10.7445C34.468 8.48215 36.4183 7 38.7001 7C41.1574 7 43.0491 8.7358 43.0491 11.2709H40.8063C40.8063 9.92545 40.0262 9.00865 38.7585 9.00865C37.647 9.00865 36.7108 9.59395 36.7108 10.7445C36.7108 11.8561 37.6859 12.3828 38.7001 12.7533L38.7416 12.7681C40.8588 13.5256 43.3806 14.4279 43.3806 17.0242C43.3806 19.8327 41.2354 21.3145 38.7001 21.3145C36.2232 21.3145 34 19.579 34 16.5172H36.2428Z" fill="#8C8C8C"/>
<path fill-rule="evenodd" clip-rule="evenodd" d="M44.7009 16.4393C44.7009 13.8648 46.5927 11.6612 49.479 11.6612C52.4045 11.6612 54.2961 13.8648 54.2961 16.4393C54.2961 19.0134 52.4045 21.2174 49.479 21.2174C46.5927 21.2174 44.7009 19.0134 44.7009 16.4393ZM52.1703 16.4393C52.1703 14.879 51.1172 13.5528 49.479 13.5528C47.8797 13.5528 46.8266 14.879 46.8266 16.4393C46.8266 17.9991 47.8797 19.3254 49.479 19.3254C51.1172 19.3254 52.1703 17.9991 52.1703 16.4393Z" fill="#8C8C8C"/>
<path fill-rule="evenodd" clip-rule="evenodd" d="M56.0398 20.9832H58.1656V19.7547C58.7309 20.6711 59.9207 21.2174 60.9739 21.2174C63.7433 21.2174 65.635 19.0134 65.635 16.4393C65.635 13.8648 63.7433 11.6612 60.9739 11.6612C59.9207 11.6612 58.7309 12.2072 58.1656 13.1237V7.33157H56.0398V20.9832ZM60.8567 13.5528C62.456 13.5528 63.509 14.879 63.509 16.4393C63.509 17.9991 62.456 19.3254 60.8567 19.3254C59.2186 19.3254 58.1656 17.9991 58.1656 16.4393C58.1656 14.879 59.2186 13.5528 60.8567 13.5528Z" fill="#8C8C8C"/>
<path d="M73.1436 13.8648C72.812 13.7867 72.6364 13.7675 72.3048 13.7675C70.491 13.7675 69.4968 14.801 69.4968 17.0631V20.9832H67.3708V11.8952H69.4968V13.3577C69.9062 12.5193 71.0958 11.778 72.3048 11.778C72.6364 11.778 72.9095 11.8172 73.1436 11.9147V13.8648Z" fill="#8C8C8C"/>
<path fill-rule="evenodd" clip-rule="evenodd" d="M83.3374 20.9832V11.8952H81.2116V13.1237C80.6459 12.2072 79.4564 11.6612 78.4031 11.6612C75.634 11.6612 73.7422 13.8648 73.7422 16.4393C73.7422 19.0134 75.634 21.2174 78.4031 21.2174C79.4564 21.2174 80.6459 20.6711 81.2116 19.7547V20.9832H83.3374ZM78.5204 13.5528C80.1584 13.5528 81.2116 14.879 81.2116 16.4393C81.2116 17.9991 80.1584 19.3254 78.5204 19.3254C76.9211 19.3254 75.868 17.9991 75.868 16.4393C75.868 14.879 76.9211 13.5528 78.5204 13.5528Z" fill="#8C8C8C"/>
<path fill-rule="evenodd" clip-rule="evenodd" d="M92.5505 19.7547C91.9849 20.6711 90.7954 21.2174 89.7421 21.2174C86.9729 21.2174 85.0813 19.0134 85.0813 16.4393C85.0813 13.8648 86.9729 11.6612 89.7421 11.6612C90.7954 11.6612 91.9849 12.2072 92.5505 13.1237V7.33157H94.6765V20.9832H92.5505V19.7547ZM92.5505 16.4393C92.5505 14.879 91.4974 13.5528 89.8596 13.5528C88.2601 13.5528 87.2069 14.879 87.2069 16.4393C87.2069 17.9991 88.2601 19.3254 89.8596 19.3254C91.4974 19.3254 92.5505 17.9991 92.5505 16.4393Z" fill="#8C8C8C"/>
<path fill-rule="evenodd" clip-rule="evenodd" d="M101.198 11.6612C98.3118 11.6612 96.4202 13.8648 96.4202 16.4393C96.4202 19.0134 98.3118 21.2174 101.198 21.2174C104.124 21.2174 106.015 19.0134 106.015 16.4393C106.015 13.8648 104.124 11.6612 101.198 11.6612ZM101.198 13.5528C102.836 13.5528 103.889 14.879 103.889 16.4393C103.889 17.9991 102.836 19.3254 101.198 19.3254C99.5988 19.3254 98.5458 17.9991 98.5458 16.4393C98.5458 14.879 99.5988 13.5528 101.198 13.5528Z" fill="#8C8C8C"/>
<path d="M83.4246 22.674H83.5746L83.6756 22.6749V22.7793H83.6514C83.6492 22.7793 83.6473 22.7794 83.6451 22.7793H83.4246V22.674Z" fill="#8C8C8C"/>
<path fill-rule="evenodd" clip-rule="evenodd" d="M12 0L24 7V21L12 28L0 21V7L12 0Z" fill="#DCDCDC"/>
<path fill-rule="evenodd" clip-rule="evenodd" d="M12 7L18 18H6L12 7Z" fill="#E95A0C"/>
<path fill-rule="evenodd" clip-rule="evenodd" d="M6 18L0 7L12 0L24 7L12 7L6 18Z" fill="#1EA1B8"/>
<path fill-rule="evenodd" clip-rule="evenodd" d="M6 18L0 21L12 28L18 18H6Z" fill="#753C52"/>
<path fill-rule="evenodd" clip-rule="evenodd" d="M24 7L18 18L24 21V7Z" fill="#B4B4B4"/>
</svg>