<?xml version="1.0" encoding="UTF-8" standalone="no"?>
<svg
   width="141"
   height="45"
   viewBox="0 0 141 45"
   fill="none"
   version="1.1"
   id="svg16"
   sodipodi:docname="taurus.svg"
   inkscape:version="1.2.1 (9c6d41e410, 2022-07-14)"
   xmlns:inkscape="http://www.inkscape.org/namespaces/inkscape"
   xmlns:sodipodi="http://sodipodi.sourceforge.net/DTD/sodipodi-0.dtd"
   xmlns="http://www.w3.org/2000/svg"
   xmlns:svg="http://www.w3.org/2000/svg">
  <defs
     id="defs20" />
  <sodipodi:namedview
     id="namedview18"
     pagecolor="#ffffff"
     bordercolor="#000000"
     borderopacity="0.25"
     inkscape:showpageshadow="2"
     inkscape:pageopacity="0.0"
     inkscape:pagecheckerboard="0"
     inkscape:deskcolor="#d1d1d1"
     showgrid="false"
     inkscape:zoom="9.2907801"
     inkscape:cx="60.59771"
     inkscape:cy="13.185115"
     inkscape:window-width="1920"
     inkscape:window-height="1016"
     inkscape:window-x="0"
     inkscape:window-y="0"
     inkscape:window-maximized="1"
     inkscape:current-layer="svg16" />
  <g
     id="g1889"
     transform="translate(0.014,9.379328)">
    <path
       d="M 12.427,4.72485 H 0 V 8.79729 H 8.26581 V 25.1149 H 12.427 V 18.8389 8.40678 Z"
       fill="white"
       class="logo-t"
       id="path2"
       style="fill:#000000" />
    <path
       d="M 20.6926,0.652344 H 12.4268 V 4.72478 h 8.2658 z"
       fill="#FA64FF"
       class="logo-p"
       id="path4"
       style="fill:#fa64ff;fill-opacity:1" />
    <path
       d="M 39.0072,25.1149 37.3087,21.0425 H 26.382 l -1.6984,4.0724 H 20.2959 L 28.7882,4.72485 h 6.1993 L 43.4798,25.1149 Z M 32.0435,8.40678 h -0.4246 l -3.7083,8.95382 h 7.8695 z"
       fill="white"
       class="logo-a"
       id="path6"
       style="fill:#000000" />
    <path
       d="m 50.2745,15.3243 c 0,1.841 0.5379,3.3751 1.6419,4.5467 1.0757,1.1715 2.4627,1.7851 4.1612,1.7851 1.6984,0 3.0572,-0.5857 4.1612,-1.7851 1.0757,-1.1716 1.6418,-2.7057 1.6418,-4.5467 V 4.72485 h 4.1329 V 15.3243 c 0,1.4784 -0.2547,2.8173 -0.736,4.0725 -0.5095,1.2552 -1.1889,2.3151 -2.0664,3.2077 -0.8775,0.8926 -1.9249,1.6178 -3.1422,2.1199 -1.2172,0.5021 -2.5476,0.781 -3.963,0.781 -1.4154,0 -2.7458,-0.251 -3.9631,-0.781 -1.2172,-0.53 -2.2646,-1.2273 -3.1421,-2.1199 -0.8775,-0.8926 -1.5852,-1.9804 -2.0665,-3.2077 -0.4812,-1.2273 -0.736,-2.622 -0.736,-4.0725 V 4.72485 h 4.1329 V 15.3243 Z"
       fill="white"
       class="logo-u"
       id="path8"
       style="fill:#000000" />
    <path
       d="m 86.9043,16.719 c 0.3397,0.3905 0.5662,0.6973 0.736,0.9763 l 4.6708,7.4196 h -4.6708 l -5.2652,-8.368 h -6.4824 v 8.368 H 71.7598 V 4.72485 h 14.3236 c 1.8683,0 3.3686,0.55787 4.5009,1.67361 1.1323,1.11573 1.6985,2.59408 1.6985,4.43504 0,1.6178 -0.4813,2.9846 -1.472,4.0445 -0.9342,1.06 -2.2646,1.6737 -3.9065,1.841 z M 86.1117,8.40678 H 75.921 v 4.68612 h 10.1907 c 0.6228,0 1.1323,-0.1953 1.5003,-0.5579 0.368,-0.3626 0.5662,-0.8647 0.5662,-1.4783 V 10.443 C 88.1782,9.82934 87.98,9.32726 87.612,8.96465 87.244,8.60203 86.7345,8.40678 86.1117,8.40678 Z"
       fill="white"
       class="logo-r"
       id="path10"
       style="fill:#000000" />
    <path
       d="m 101.114,15.3243 c 0,1.841 0.538,3.3751 1.642,4.5467 1.076,1.1715 2.463,1.7851 4.161,1.7851 1.699,0 3.058,-0.5857 4.162,-1.7851 1.075,-1.1716 1.641,-2.7057 1.641,-4.5467 V 4.72485 h 4.133 V 15.3243 c 0,1.4784 -0.254,2.8173 -0.736,4.0725 -0.509,1.2552 -1.189,2.3151 -2.066,3.2077 -0.878,0.8926 -1.925,1.6178 -3.142,2.1199 -1.217,0.5021 -2.548,0.781 -3.963,0.781 -1.416,0 -2.746,-0.251 -3.963,-0.781 -1.218,-0.53 -2.265,-1.2273 -3.1425,-2.1199 -0.8775,-0.8926 -1.5852,-1.9804 -2.0664,-3.2077 -0.4812,-1.2273 -0.736,-2.622 -0.736,-4.0725 V 4.72485 h 4.1329 V 15.3243 Z"
       fill="white"
       class="logo-u"
       id="path12"
       style="fill:#000000" />
    <path
       d="m 121.411,19.0062 h 4.076 c 0,0.8647 0.538,1.562 1.586,2.092 1.047,0.5299 2.434,0.781 4.133,0.781 1.868,0 3.283,-0.2511 4.274,-0.781 0.962,-0.53 1.444,-1.2552 1.444,-2.2036 0,-0.8089 -0.482,-1.3947 -1.416,-1.7852 -0.934,-0.3626 -2.434,-0.5579 -4.472,-0.5579 -3.227,0 -5.577,-0.4463 -7.049,-1.3667 -1.444,-0.9205 -2.18,-2.3989 -2.18,-4.463 0,-2.09199 0.793,-3.68191 2.378,-4.76975 1.586,-1.08785 3.935,-1.61782 6.992,-1.61782 1.416,0 2.689,0.16736 3.85,0.47419 1.161,0.30682 2.151,0.75312 2.944,1.33888 0.821,0.55787 1.444,1.2552 1.897,2.06411 0.453,0.80891 0.679,1.7015 0.679,2.67779 h -4.076 c 0,-0.8647 -0.481,-1.56205 -1.444,-2.09203 -0.962,-0.50208 -2.265,-0.78101 -3.85,-0.78101 -3.538,0 -5.293,0.92048 -5.293,2.73354 0,0.781 0.424,1.3389 1.274,1.6736 0.849,0.3347 2.264,0.5021 4.217,0.5021 3.369,0 5.803,0.4742 7.332,1.4226 1.5,0.9483 2.265,2.4825 2.265,4.5745 0,2.1757 -0.821,3.8214 -2.491,4.965 -1.671,1.1157 -4.105,1.7015 -7.304,1.7015 -1.472,0 -2.802,-0.1674 -3.991,-0.4742 -1.189,-0.3068 -2.236,-0.7531 -3.086,-1.3389 -0.849,-0.5578 -1.528,-1.2552 -2.009,-2.0641 -0.453,-0.8368 -0.68,-1.7294 -0.68,-2.7056 z"
       fill="white"
       class="logo-s"
       id="path14"
       style="fill:#000000" />
  </g>
</svg>
