<?xml version="1.0" encoding="UTF-8" standalone="no"?>
<!-- Generator: Adobe Illustrator 19.2.1, SVG Export Plug-In . SVG Version: 6.00 Build 0)  -->

<svg
   version="1.1"
   id="layer"
   x="0px"
   y="0px"
   viewBox="0 0 652 652"
   style="enable-background:new 0 0 652 652;"
   xml:space="preserve"
   sodipodi:docname="zuhlke.svg"
   inkscape:version="1.2.2 (b0a8486541, 2022-12-01)"
   xmlns:inkscape="http://www.inkscape.org/namespaces/inkscape"
   xmlns:sodipodi="http://sodipodi.sourceforge.net/DTD/sodipodi-0.dtd"
   xmlns="http://www.w3.org/2000/svg"
   xmlns:svg="http://www.w3.org/2000/svg"><defs
   id="defs57" /><sodipodi:namedview
   id="namedview55"
   pagecolor="#ffffff"
   bordercolor="#000000"
   borderopacity="0.25"
   inkscape:showpageshadow="2"
   inkscape:pageopacity="0.0"
   inkscape:pagecheckerboard="0"
   inkscape:deskcolor="#d1d1d1"
   showgrid="false"
   inkscape:zoom="1.1993865"
   inkscape:cx="326"
   inkscape:cy="326"
   inkscape:window-width="1920"
   inkscape:window-height="1011"
   inkscape:window-x="0"
   inkscape:window-y="0"
   inkscape:window-maximized="1"
   inkscape:current-layer="layer" />
<style
   type="text/css"
   id="style2">
	.st0{fill-rule:evenodd;clip-rule:evenodd;fill:#97589F;}
	.st1{fill:#7E3890;}
	.st2{fill:#FFFFFF;}
</style>
























<g
   id="g242"
   transform="matrix(1.3043548,0,0,1.3043548,-97.804218,-97.98683)"><path
     class="st0"
     d="M 553.6,472.9"
     id="path4" /><rect
     x="75.099998"
     y="75.699997"
     class="st1"
     width="500"
     height="500"
     id="rect6" /><polyline
     class="st2"
     points="177.5,395.9 177.5,408.9 96.6,408.9 153.2,338.7 105.9,338.7 105.9,325.8 179.9,325.8 123.6,395.9 "
     id="polyline8" /><path
     class="st2"
     d="m 205.3,372.2 c 0,14 1.6,26 18.8,26 17.1,0 18.8,-12 18.8,-26 V 325.9 H 257 v 47.9 c 0,22.1 -8.3,37.5 -32.9,37.5 -24.6,0 -32.9,-15.4 -32.9,-37.5 v -47.9 h 14.2"
     id="path10" /><path
     class="st2"
     d="m 218.7,281.4 c 0,5.3 -4.3,9.6 -9.6,9.6 -5.3,0 -9.5,-4.3 -9.5,-9.6 0,-5.3 4.2,-9.6 9.5,-9.6 5.4,0 9.6,4.3 9.6,9.6"
     id="path12" /><path
     class="st2"
     d="m 248.7,281.4 c 0,5.3 -4.3,9.6 -9.6,9.6 -5.3,0 -9.5,-4.3 -9.5,-9.6 0,-5.3 4.2,-9.6 9.5,-9.6 5.4,0 9.6,4.3 9.6,9.6"
     id="path14" /><path
     class="st2"
     d="m 291.7,272.3 v 63.2 l 0.4,0.4 c 5.8,-8 13.4,-12.4 23.7,-12.4 23,0 28.3,16.6 28.3,36.1 V 409 h -14.2 v -46.9 c 0,-13.4 -1.1,-25.5 -17.5,-25.5 -19.5,0 -20.7,18 -20.7,32.9 V 409 H 277.5 V 272.3"
     id="path16" /><rect
     x="364.89999"
     y="272.29999"
     class="st2"
     width="14.2"
     height="136.7"
     id="rect18" /><polyline
     class="st2"
     points="416.5,356.6 446.7,325.8 465.7,325.8 430.1,361.2 472.4,408.9 453.6,408.9 416.5,366.8 416.5,408.9   402.3,408.9 402.3,272.3 416.5,272.3 "
     id="polyline20" /><path
     class="st2"
     d="m 538.3,382.4 c -5.3,9.2 -12.8,15.8 -24,15.8 -15.8,0 -26.5,-12.4 -26.7,-27.8 h 64 c 1.4,-24.8 -12.5,-46.9 -38.7,-46.9 -25.5,0 -39.5,20.3 -39.5,44.9 0,23.9 15.6,42.8 39.9,42.8 16.1,0 28.6,-8.1 36.5,-22.1 m -36.7,-52.5 c 12.1,0 22,9.7 23.9,21.8 h -48.7 c 1.8,-12.1 12.8,-21.8 24.8,-21.8"
     id="path22" /><path
     class="st2"
     d="m 123.1,476.5 c -2.3,4.6 -6.2,7.2 -11.5,7.2 -9.8,0 -13.6,-8.4 -13.6,-17.1 0,-9.1 4.1,-17.1 14,-17.1 5,0 8.9,2.5 10.9,7.1 0.5,1.3 0.9,2.6 0.9,4.1 0,1.3 -0.6,1.8 -1.8,2 l -19.2,2.8 c 0.3,5.7 2.9,13 9.7,13 4.3,0 6.9,-2.6 9,-6.1 0.4,-0.7 0.6,-1.3 1.5,-1.3 0.9,0 1.2,0.8 1.2,1.6 0,1 -0.7,2.8 -1.1,3.8 m -5.3,-16.3 c -0.3,-3.6 -2.8,-7 -6.7,-7 -5.5,0 -7.7,4.6 -8.2,9.4 z"
     id="path24" /><path
     class="st2"
     d="m 170.9,481.7 c 0,0.8 -0.2,1.2 -1.1,1.2 h -3.3 c -0.9,0 -1.1,-0.2 -1.1,-1.2 v -20.4 c 0,-4.2 -0.6,-8.2 -6,-8.2 -2.5,0 -4.9,1.1 -5.8,3.6 -0.3,0.8 -0.3,2.2 -0.3,3 v 22 c 0,0.7 -0.1,1.2 -1,1.2 h -3.5 c -0.7,0 -1.1,-0.4 -1.1,-1.1 V 460 c 0,-4.1 -1.6,-7.2 -6.2,-7.2 -2.5,0 -4.7,1 -5.7,3.5 -0.4,0.9 -0.4,2.3 -0.4,3.3 v 22 c 0,0.9 -0.3,1.2 -1.2,1.2 H 131 c -0.9,0 -1.1,-0.2 -1.1,-1.2 v -25.3 c 0,-1.8 -0.1,-2.6 1.3,-4.1 1.8,-2 7.9,-2.8 10.4,-2.8 3.8,0 7,0.8 9.4,3.8 2.8,-3 5.9,-3.8 9.9,-3.8 6.5,0 10.2,2.8 10.2,9.4"
     id="path26" /><path
     class="st2"
     d="m 190.7,483.6 c -2.7,0 -4.6,-0.8 -6.8,-2.3 v 15.2 c 0,0.7 -0.3,1.1 -1,1.1 h -3.4 c -0.8,0 -1.2,-0.2 -1.2,-1.1 v -38.1 c 0,-1.5 -0.2,-3.6 0.8,-4.9 1.9,-2.9 8.5,-4 11.6,-4 9.7,0 14.7,6.4 14.7,15.6 -0.1,8.6 -4.9,18.5 -14.7,18.5 M 189.4,453 c -4.2,0 -5.5,1.6 -5.5,5.5 v 19.2 c 2,1.2 4.1,2.1 6.4,2.1 6.9,0 9.3,-7.9 9.3,-13.5 0,-6.5 -2.8,-13.3 -10.2,-13.3"
     id="path28" /><path
     class="st2"
     d="m 223.9,483.6 c -9.6,0 -14.5,-8.5 -14.5,-17.1 0,-8.4 5.2,-17 14.5,-17 9.3,0 14.2,9 14.2,17.4 0,8.3 -5.2,16.7 -14.2,16.7 m 8.3,-17.6 c 0,-5 -2.6,-12.9 -8.7,-12.9 -6.4,0 -8.2,7.6 -8.2,12.6 0,5.2 2.1,14.1 8.9,14.1 6.2,0 8.1,-7.8 8.1,-12.7 V 466 Z"
     id="path30" /><path
     class="st2"
     d="m 280.5,452.1 -9.3,29.8 c -0.2,0.6 -0.3,0.9 -0.9,0.9 H 268 c -0.9,0 -1.1,0 -1.3,-0.9 l -6.2,-20.2 -6.2,20.2 c -0.3,0.9 -0.3,0.9 -1.3,0.9 h -1.8 c -0.8,0 -1,-0.2 -1.3,-0.9 l -9.6,-29.8 c -0.2,-0.4 -0.3,-0.8 -0.3,-1.1 0,-0.5 0.4,-0.7 0.9,-0.7 h 3.5 c 1,0 1.2,0.2 1.5,1.2 l 6.9,23.2 6.8,-23.2 c 0.3,-1.3 0.2,-1.2 1.7,-1.2 0.7,0 0.6,0.4 0.8,1 l 7.2,23.7 6.6,-23.5 c 0.3,-0.9 0.3,-1.2 1.3,-1.2 h 2.3 c 0.4,0 1.1,0.1 1.1,0.6 0.2,0.4 0.1,0.8 -0.1,1.2"
     id="path32" /><path
     class="st2"
     d="m 307.9,476.5 c -2.3,4.6 -6.2,7.2 -11.5,7.2 -9.8,0 -13.6,-8.4 -13.6,-17.1 0,-9.1 4.1,-17.1 14,-17.1 5,0 8.9,2.5 10.9,7.1 0.5,1.3 0.9,2.6 0.9,4.1 0,1.3 -0.6,1.8 -1.8,2 l -19.2,2.8 c 0.3,5.7 2.9,13 9.7,13 4.3,0 6.9,-2.6 9,-6.1 0.4,-0.7 0.6,-1.3 1.5,-1.3 0.9,0 1.2,0.8 1.2,1.6 0.1,1 -0.6,2.8 -1.1,3.8 m -5.3,-16.3 c -0.3,-3.6 -2.8,-7 -6.7,-7 -5.5,0 -7.7,4.6 -8.2,9.4 z"
     id="path34" /><path
     class="st2"
     d="m 330.3,455.9 c -2.5,0 -2.5,-3.3 -6.3,-3.3 -3,0 -3.7,1.9 -3.7,4.5 v 24.7 c 0,0.7 -0.2,1.1 -0.9,1.1 H 316 c -0.9,0 -1.3,-0.1 -1.3,-1.1 v -26.2 c 0,-1.3 0,-2.3 0.9,-3.3 1.8,-1.8 8.2,-2.7 10.8,-2.7 2.5,0 6.5,0.4 6.5,3.6 -0.1,1.4 -1.1,2.7 -2.6,2.7"
     id="path36" /><path
     class="st2"
     d="m 339.8,444.7 c -2,0 -3.4,-1.3 -3.4,-3.3 0,-2 1.4,-3.4 3.4,-3.4 2.1,0 3.3,1.4 3.3,3.5 0,1.9 -1.5,3.2 -3.3,3.2 m 2.7,37 c 0,0.9 -0.1,1.2 -1.1,1.2 h -3.7 c -0.7,0 -0.8,-0.2 -0.8,-0.9 v -30.7 c 0,-0.8 0.3,-1 1.1,-1 h 3.3 c 1,0 1.2,0.2 1.2,1.2 z"
     id="path38" /><path
     class="st2"
     d="m 375.2,481.6 c 0,0.7 -0.2,1.3 -1,1.3 h -3.3 c -0.9,0 -1.3,-0.1 -1.3,-1.1 v -21.3 c 0,-1.3 0,-3.1 -0.6,-4.3 -1.3,-2.7 -4.1,-3.4 -6.8,-3.4 -2.2,0 -4.8,0.5 -6.1,2.5 -0.6,0.9 -0.7,2.1 -0.7,3.2 v 23.2 c 0,0.9 -0.2,1.3 -1.1,1.3 h -3.5 c -0.8,0 -1,-0.4 -1,-1.2 v -25.4 c 0,-1.5 0.1,-2.7 1.3,-3.8 2.4,-2.3 9,-3 12.1,-3 4.5,0 9.3,0.9 11.3,5.5 0.6,1.4 0.6,3.5 0.6,4.9"
     id="path40" /><path
     class="st2"
     d="m 381.7,493.1 c 0.1,-0.1 0.3,-0.4 0.5,-0.5 0.2,-0.2 0.4,-0.3 0.7,-0.3 2.4,0.2 4.3,1.6 7.3,1.6 6.5,0 10.5,-3.4 10.5,-10.4 v -2.7 c -3.1,1.4 -5,3.3 -8.6,3.3 -8.2,0 -12,-7.7 -12,-15.5 0,-9.6 5.5,-19.1 15.4,-19.1 2.8,0 10.7,1.4 10.7,5.8 v 29.3 c 0,8.6 -7.9,13.5 -15.4,13.5 -1.3,0 -3.6,-0.4 -5.7,-1.2 -2,-0.8 -3.4,-1.6 -3.4,-3.1 m 12.4,-14.3 c 1.3,0 6.7,-1 6.7,-2.7 v -20.3 c 0,-2.9 -3.7,-3.6 -5.8,-3.6 -6.9,0 -9.2,8.4 -9.2,14.2 -0.1,5.8 1.9,12.4 8.3,12.4"
     id="path42" /><path
     class="st2"
     d="m 430.3,444.7 c -2,0 -3.4,-1.3 -3.4,-3.3 0,-2 1.5,-3.4 3.4,-3.4 2.1,0 3.3,1.4 3.3,3.5 0,1.9 -1.5,3.2 -3.3,3.2 m 2.8,37 c 0,0.9 -0.1,1.2 -1.1,1.2 h -3.7 c -0.7,0 -0.8,-0.2 -0.8,-0.9 v -30.7 c 0,-0.8 0.2,-1 1.1,-1 h 3.3 c 1,0 1.2,0.2 1.2,1.2 z"
     id="path44" /><path
     class="st2"
     d="m 466.2,476.6 c 0,1.3 -0.1,2.1 -0.9,3.1 -2.2,2.9 -8.1,3.8 -11.6,3.8 -9.8,0 -14.8,-6.6 -14.8,-16 0,-8.9 5.1,-18.1 14.9,-18.1 2.5,0 4.7,0.6 6.7,2.1 v -15.7 c 0,-0.8 0.4,-1.2 1.2,-1.2 h 3.2 c 0.8,0 1.3,0.1 1.3,1.1 m -5.7,19.4 c -1.8,-1.5 -3.6,-2.3 -6,-2.3 -6.8,0 -9.9,7.4 -9.9,13.2 0,6.5 2.8,13.7 10.4,13.7 3.7,0 5.6,-1.2 5.6,-5 v -19.6 z"
     id="path46" /><path
     class="st2"
     d="m 496.8,476.5 c -2.3,4.6 -6.2,7.2 -11.5,7.2 -9.8,0 -13.6,-8.4 -13.6,-17.1 0,-9.1 4.1,-17.1 14,-17.1 5,0 8.9,2.5 10.9,7.1 0.5,1.3 0.9,2.6 0.9,4.1 0,1.3 -0.6,1.8 -1.8,2 l -19.2,2.8 c 0.3,5.7 2.9,13 9.7,13 4.3,0 6.9,-2.6 9,-6.1 0.4,-0.7 0.6,-1.3 1.5,-1.3 0.9,0 1.2,0.8 1.2,1.6 0,1 -0.7,2.8 -1.1,3.8 m -5.3,-16.3 c -0.3,-3.6 -2.8,-7 -6.7,-7 -5.5,0 -7.7,4.6 -8.2,9.4 z"
     id="path48" /><path
     class="st2"
     d="m 524.1,476.5 c 0,1.3 -0.2,2.8 -0.9,3.9 -1.9,2.6 -7.7,3.2 -10.8,3.2 -5.6,0 -10.9,-2.2 -10.9,-8.6 0,-8.4 10.9,-10.5 17.2,-12.3 v -3.2 c 0,-3.3 -0.5,-6.7 -4.7,-6.7 -2.7,0 -4.3,1.6 -5.3,4.1 -0.2,0.3 -0.1,0.6 -0.3,0.8 -0.5,1.2 -1.2,1.9 -2.5,1.9 -1.5,0 -2.5,-1.2 -2.5,-2.6 0,-5.3 7.2,-7.5 11.5,-7.5 6.8,0 9.4,3.5 9.4,10.1 m -5.7,6.2 c -4.3,1.3 -11.4,2.8 -11.4,8.5 0,3.8 2.6,6 6.4,6 3.2,0 5,-1.1 5,-4.5 z"
     id="path50" /><path
     class="st2"
     d="m 540.4,483.6 c -3.5,0 -6.4,-0.8 -8.9,-3.3 -1,-1 -2,-2.4 -2,-3.8 0,-1.5 1.2,-2.8 2.7,-2.8 3.2,0 2.9,6.3 8.6,6.3 2.8,0 4.9,-1.8 4.9,-4.8 0,-8.2 -15.5,-6.1 -15.5,-17 0,-5.7 4.7,-8.7 9.9,-8.7 3.2,0 6.7,0.8 8.7,3.5 0.7,0.8 1.2,1.8 1.2,2.8 0,1.3 -1.1,2.4 -2.4,2.4 -3.4,0 -2.5,-5.5 -7.5,-5.5 -2.7,0 -4.8,1.8 -4.8,4.6 0,7.8 15.7,5.6 15.7,16.9 0.1,6.3 -4.6,9.4 -10.6,9.4"
     id="path52" /></g>
</svg>
